<svg id="Capa_1" data-name="Capa 1" xmlns="http://www.w3.org/2000/svg" viewBox="0 0 512 412.856">
  <title>friend-request</title>
  <g id="group">
    <g>
      <path d="M391.452,462.434H114.957a51.452,51.452,0,0,1-51.408-51.407V394.008a103.482,103.482,0,0,1,98.47-103.451l6.226-.3,3.788,4.955c20.846,27.345,50.4,43.041,81.061,43.041s60.216-15.7,81.087-43.041l3.762-4.942,6.214.285a103.4,103.4,0,0,1,98.677,103.451v17.019A51.422,51.422,0,0,1,391.452,462.434ZM157.3,314.763a79.775,79.775,0,0,0-70.022,79.245v17.019a27.73,27.73,0,0,0,27.695,27.695H391.452a27.73,27.73,0,0,0,27.695-27.695V394.008a79.726,79.726,0,0,0-70.2-79.258c-25.139,30.094-59.722,47.23-95.836,47.23S182.411,344.857,157.3,314.763Z" transform="translate(0 -49.579)" fill="#26272d"/>
      <path d="M253.107,329.032c-55.584,0-100.8-55.209-100.8-123.052S197.51,82.916,253.107,82.916s100.8,55.209,100.8,123.064S308.692,329.032,253.107,329.032Zm0-222.416c-42.5,0-77.079,44.571-77.079,99.351s34.583,99.339,77.079,99.339,77.079-44.571,77.079-99.339S295.6,106.616,253.107,106.616Z" transform="translate(0 -49.579)" fill="#26272d"/>
    </g>
    <g>
      <path d="M500.144,350.954A11.853,11.853,0,0,1,488.287,339.1V324.167a68.561,68.561,0,0,0-59.6-68.063,127.347,127.347,0,0,1-13.751,13.983,11.862,11.862,0,0,1-15.553-17.914,106.889,106.889,0,0,0,14.606-15.631l3.775-4.942,6.214.285A92.246,92.246,0,0,1,512,324.154v14.931A11.855,11.855,0,0,1,500.144,350.954Z" transform="translate(0 -49.579)" fill="#26272d"/>
      <path d="M403.192,234.506a11.847,11.847,0,0,1-9.768-18.563c10.806-15.722,16.76-35.932,16.76-56.882,0-47.295-29.719-85.77-66.235-85.77a11.856,11.856,0,1,1,0-23.712c49.6,0,89.96,49.111,89.96,109.482,0,25.7-7.42,50.668-20.91,70.308A11.94,11.94,0,0,1,403.192,234.506Z" transform="translate(0 -49.579)" fill="#26272d"/>
    </g>
    <g>
      <path d="M11.856,350.954A11.852,11.852,0,0,1,0,339.1V324.167A92.228,92.228,0,0,1,88.027,231.9l6.214-.285,3.775,4.942a106.232,106.232,0,0,0,14.606,15.631A11.862,11.862,0,0,1,97.069,270.1a129.706,129.706,0,0,1-13.751-13.983,68.572,68.572,0,0,0-59.6,68.063v14.931A11.85,11.85,0,0,1,11.856,350.954Z" transform="translate(0 -49.579)" fill="#26272d"/>
      <path d="M108.808,234.506a11.9,11.9,0,0,1-9.794-5.137c-13.49-19.64-20.91-44.6-20.91-70.308,0-60.371,40.342-109.482,89.96-109.482a11.856,11.856,0,0,1,0,23.712c-36.516,0-66.235,38.488-66.235,85.77,0,20.95,5.954,41.16,16.76,56.882a11.847,11.847,0,0,1-9.781,18.563Z" transform="translate(0 -49.579)" fill="#26272d"/>
    </g>
  </g>
</svg>
