<svg id="Capa_1" data-name="Capa 1" xmlns="http://www.w3.org/2000/svg" viewBox="0 0 358.597 512">
  <title>placeholder</title>
  <g>
    <path d="M180.972,112.205a65.453,65.453,0,1,0,65.453,65.453A65.537,65.537,0,0,0,180.972,112.205Zm0,112.205a46.752,46.752,0,1,1,46.752-46.752A46.805,46.805,0,0,1,180.972,224.41Z" fill="#26272d"/>
    <path d="M306.108,52.521a179.3,179.3,0,0,0-253.583,0C-10.15,115.188-17.939,233.1,35.657,304.533L179.317,512,322.761,304.823C376.573,233.1,368.784,115.188,306.108,52.521ZM307.6,293.893,179.317,479.143,50.833,293.6C2.22,228.786,9.186,122.3,65.756,65.743a160.6,160.6,0,0,1,227.131,0C349.457,122.3,356.423,228.786,307.6,293.893Z" fill="#26272d"/>
  </g>
</svg>
