<svg id="Capa_1" data-name="Capa 1" xmlns="http://www.w3.org/2000/svg" viewBox="0 0 451.425 512">
  <title>power</title>
  <g>
    <path d="M316.116,72.167s-27.179-12.231-27.179,16.345,26.928,47.751,27.269,47.69a173.9,173.9,0,0,1-90.492,319.54A173.9,173.9,0,0,1,135.221,136.2c.341.061,27.268-19.116,27.268-47.69S135.31,72.168,135.31,72.168A230.168,230.168,0,0,0,0,281.911C0,407.535,100.655,509.636,225.714,512c125.058-2.365,225.711-104.465,225.711-230.089A230.168,230.168,0,0,0,316.116,72.167Z" fill="#de3a4e"/>
    <path d="M227.294,0C202.005,0,194.1,18.516,194.1,25.757V252.423c0,7.242,7.9,25.757,33.191,25.757s30.031-18.516,30.031-25.757V25.757C257.324,18.515,252.583,0,227.294,0Z" fill="#de3a4e"/>
  </g>
</svg>
