<svg id="Layer_1" data-name="Layer 1" xmlns="http://www.w3.org/2000/svg" viewBox="0 0 512 477.861">
  <title>runner</title>
  <g>
    <path d="M196.267,392.527H42.667a8.533,8.533,0,1,0,0,17.066h153.6a8.533,8.533,0,0,0,0-17.066Z" fill="#26272d"/>
    <path d="M25.6,307.193H93.867a8.533,8.533,0,1,0,0-17.066H25.6a8.533,8.533,0,0,0,0,17.066Z" fill="#26272d"/>
    <path d="M153.6,349.86a8.536,8.536,0,0,0-8.533-8.533H8.533a8.533,8.533,0,1,0,0,17.066H145.066A8.537,8.537,0,0,0,153.6,349.86Z" fill="#26272d"/>
    <path d="M435.2,358.393H384a8.533,8.533,0,0,0,0,17.066h51.2c31.13,0,55.2,21.5,59.11,51.2H353.4L80.333,153.593l128.81-128.81c7.074,22.46,23.33,66.15,49.357,92.177,29.158,29.167,79.761,35.115,99.9,36.326V221.86H338.253a17.067,17.067,0,1,0,0,17.068H358.4v51.2H338.253a17.067,17.067,0,1,0,0,17.068H358.4v8.533a8.513,8.513,0,0,0,2.5,6.033l17.067,17.067a8.532,8.532,0,0,0,12.066-12.066L375.467,312.2V145.06a8.536,8.536,0,0,0-8.533-8.533c-.649,0-65.092-.358-96.367-31.633C238.533,72.86,221.773,7.111,221.611,6.453a8.529,8.529,0,0,0-14.31-3.96L62.242,147.552a.009.009,0,0,0-.009.009c-.008,0-.008.009-.008.009L50.568,159.235c-10.641,10.633-10.325,29.6.666,40.593l267,267A41.139,41.139,0,0,0,346,477.861H486.4a25.33,25.33,0,0,0,25.6-25.6V435.194C512,392.126,478.268,358.393,435.2,358.393Zm59.733,93.867a8.346,8.346,0,0,1-8.533,8.533H346a24.868,24.868,0,0,1-15.7-6.033l-267-267c-4.4-4.4-4.727-12.407-.666-16.461l5.632-5.641L343.834,441.225a8.513,8.513,0,0,0,6.033,2.5H494.934v8.535Z" fill="#26272d"/>
    <path d="M273.067,213.327v102.4a8.533,8.533,0,0,0,17.066,0v-102.4a8.533,8.533,0,1,0-17.066,0Z" fill="#26272d"/>
    <path d="M332.715,185.9a8.534,8.534,0,0,0,1.2-16.982A170.145,170.145,0,0,1,203.76,72.305a8.534,8.534,0,0,0-15.454,7.244A187.172,187.172,0,0,0,331.487,185.815,8.52,8.52,0,0,0,332.715,185.9Z" fill="#26272d"/>
  </g>
</svg>
