<svg id="Capa_1" data-name="Capa 1" xmlns="http://www.w3.org/2000/svg" viewBox="0 0 512 511.997">
  <title>settings</title>
  <g>
    <path d="M485.793,202.254l-35.937-6.1a203.032,203.032,0,0,0-14.439-34.868l21.177-29.627a31.533,31.533,0,0,0-3.423-40.75L421.3,59.041a31.444,31.444,0,0,0-40.643-3.423L350.922,76.8a200.932,200.932,0,0,0-36.151-14.867l-5.99-35.509A31.6,31.6,0,0,0,277.55,0H232.522a31.594,31.594,0,0,0-31.231,26.418l-6.2,36.365a197.833,197.833,0,0,0-34.76,14.653L130.914,56.26a31.591,31.591,0,0,0-40.75,3.422L58.184,91.555a31.661,31.661,0,0,0-3.423,40.75L76.152,162.36a198.27,198.27,0,0,0-14.225,34.974l-35.509,5.99A31.6,31.6,0,0,0,0,234.555v45.028a31.6,31.6,0,0,0,26.418,31.231l36.365,6.2a197.833,197.833,0,0,0,14.653,34.76l-21.07,29.306a31.532,31.532,0,0,0,3.422,40.75l31.873,31.873a31.394,31.394,0,0,0,22.354,9.305A31.079,31.079,0,0,0,132.3,457.13l30.055-21.392a202.339,202.339,0,0,0,33.8,13.9l5.989,35.937A31.6,31.6,0,0,0,233.377,512h45.136a31.6,31.6,0,0,0,31.231-26.418l6.1-35.937A203.032,203.032,0,0,0,350.708,435.2l29.626,21.177a31.4,31.4,0,0,0,18.4,5.882h0a31.4,31.4,0,0,0,22.354-9.3l31.872-31.872a31.662,31.662,0,0,0,3.423-40.751L435.2,350.6a201.576,201.576,0,0,0,14.439-34.868l35.937-5.989A31.6,31.6,0,0,0,512,278.514V233.485A31.216,31.216,0,0,0,485.793,202.254Zm-2.46,76.26a2.769,2.769,0,0,1-2.353,2.78l-44.922,7.487a14.36,14.36,0,0,0-11.551,10.589,171.227,171.227,0,0,1-18.61,44.814,14.461,14.461,0,0,0,.642,15.723l26.418,37.22a2.915,2.915,0,0,1-.321,3.637l-31.873,31.873a2.718,2.718,0,0,1-2.032.855,2.634,2.634,0,0,1-1.605-.534L360.013,406.54a14.452,14.452,0,0,0-15.723-.642,171.227,171.227,0,0,1-44.814,18.61,14.2,14.2,0,0,0-10.589,11.551l-7.594,44.922a2.769,2.769,0,0,1-2.78,2.353H233.484a2.771,2.771,0,0,1-2.781-2.353l-7.487-44.922a14.357,14.357,0,0,0-10.588-11.551,177.79,177.79,0,0,1-43.852-17.968,14.8,14.8,0,0,0-7.273-1.926,14.086,14.086,0,0,0-8.342,2.674L115.726,433.92a3.184,3.184,0,0,1-1.6.535,2.864,2.864,0,0,1-2.032-.856L80.217,401.727a2.9,2.9,0,0,1-.321-3.637l26.311-36.9a14.64,14.64,0,0,0,.642-15.829,169.572,169.572,0,0,1-18.824-44.708,14.648,14.648,0,0,0-11.552-10.588l-45.242-7.7a2.77,2.77,0,0,1-2.353-2.781V234.555a2.77,2.77,0,0,1,2.353-2.781l44.6-7.487A14.462,14.462,0,0,0,87.49,213.592a171.046,171.046,0,0,1,18.289-44.922,14.278,14.278,0,0,0-.749-15.615L78.4,115.62a2.912,2.912,0,0,1,.32-3.636l31.873-31.873a2.717,2.717,0,0,1,2.032-.856,2.628,2.628,0,0,1,1.605.535l36.9,26.311a14.642,14.642,0,0,0,15.83.642,169.58,169.58,0,0,1,44.707-18.824,14.649,14.649,0,0,0,10.589-11.552l7.7-45.242a2.77,2.77,0,0,1,2.781-2.353h45.028a2.771,2.771,0,0,1,2.781,2.353l7.487,44.6a14.462,14.462,0,0,0,10.695,11.658,173.6,173.6,0,0,1,45.884,18.824,14.461,14.461,0,0,0,15.723-.642l36.9-26.525a3.182,3.182,0,0,1,1.605-.534,2.863,2.863,0,0,1,2.032.855l31.873,31.873a2.9,2.9,0,0,1,.321,3.636l-26.419,37.114A14.454,14.454,0,0,0,406,167.708a171.213,171.213,0,0,1,18.61,44.814,14.2,14.2,0,0,0,11.551,10.589l44.922,7.593a2.771,2.771,0,0,1,2.353,2.781v45.029Z" transform="translate(0 -0.001)" fill="#26272D"/>
    <path d="M256.052,145.461A110.485,110.485,0,1,0,366.537,255.946,110.554,110.554,0,0,0,256.052,145.461Zm0,192.092a81.607,81.607,0,1,1,81.607-81.607A81.661,81.661,0,0,1,256.052,337.553Z" transform="translate(0 -0.001)" fill="#26272D"/>
  </g>
</svg>
